<?xml version="1.0" standalone="no"?>
<!DOCTYPE svg PUBLIC "-//W3C//DTD SVG 1.1//EN"
"http://www.w3.org/Graphics/SVG/1.1/DTD/svg11.dtd">

<svg width="410" height="296" view_box="0 0 410 296"
xmlns="http://www.w3.org/2000/svg"
xmlns:link="http://www.w3.org/1999/xlink">\n\n<desc>Généré par Mocodo 2.3.7 le Wed, 03 Aug 2022 05:49:55</desc>

<rect id="frame" x="0" y="0" width="410" height="296" fill="#ffffff" stroke="none" stroke-width="0"/>

<!-- Association is_based -->
<line x1="248" y1="51" x2="152" y2="51" stroke="#878787" stroke-width="2"/>
<text x="199" y="68.0" fill="#b2182b" font-family="Verdana" font-size="12">1,1</text>
<line x1="49" y1="51" x2="152" y2="51" stroke="#878787" stroke-width="2"/>
<text x="83" y="68.0" fill="#b2182b" font-family="Verdana" font-size="12">0,N</text>
<g id="association-is_based">
	<path d="M 172 26 a 14 14 90 0 1 14 14 V 51 h -68 V 40 a 14 14 90 0 1 14 -14" fill="#bababa" stroke="#bababa" stroke-width="0"/>
	<path d="M 186 51.0 v 11 a 14 14 90 0 1 -14 14 H 132 a 14 14 90 0 1 -14 -14 V 51.0 H 68" fill="#e0e0e0" stroke="#e0e0e0" stroke-width="0"/>
	<rect x="118" y="26" width="68" height="50" fill="none" rx="14" stroke="#878787" stroke-width="2"/>
	<line x1="118" y1="51" x2="186" y2="51" stroke="#878787" stroke-width="1"/>
	<text x="125" y="43.7" fill="#000000" font-family="Verdana" font-size="12">is_based</text>
</g>

<!-- Association marks_out -->
<line x1="49" y1="51" x2="49" y2="152" stroke="#878787" stroke-width="2"/>
<text x="54.0" y="110" fill="#b2182b" font-family="Verdana" font-size="12">0,N</text>
<line x1="152" y1="152" x2="49" y2="152" stroke="#878787" stroke-width="2"/>
<text x="95" y="169.0" fill="#b2182b" font-family="Verdana" font-size="12">1,1</text>
<g id="association-marks_out">
	<path d="M 75 127 a 14 14 90 0 1 14 14 V 152 h -80 V 141 a 14 14 90 0 1 14 -14" fill="#bababa" stroke="#bababa" stroke-width="0"/>
	<path d="M 89 152.0 v 11 a 14 14 90 0 1 -14 14 H 23 a 14 14 90 0 1 -14 -14 V 152.0 H 80" fill="#e0e0e0" stroke="#e0e0e0" stroke-width="0"/>
	<rect x="9" y="127" width="80" height="50" fill="none" rx="14" stroke="#878787" stroke-width="2"/>
	<line x1="9" y1="152" x2="89" y2="152" stroke="#878787" stroke-width="1"/>
	<text x="16" y="144.7" fill="#000000" font-family="Verdana" font-size="12">marks_out</text>
</g>

<!-- Association matches -->
<line x1="248" y1="253" x2="152" y2="253" stroke="#878787" stroke-width="2"/>
<text x="204" y="270.0" fill="#b2182b" font-family="Verdana" font-size="12">1,1</text>
<line x1="152" y1="152" x2="152" y2="253" stroke="#878787" stroke-width="2"/>
<text x="157.0" y="211" fill="#b2182b" font-family="Verdana" font-size="12">0,N</text>
<g id="association-matches">
	<path d="M 171 228 a 14 14 90 0 1 14 14 V 253 h -66 V 242 a 14 14 90 0 1 14 -14" fill="#bababa" stroke="#bababa" stroke-width="0"/>
	<path d="M 185 253.0 v 11 a 14 14 90 0 1 -14 14 H 133 a 14 14 90 0 1 -14 -14 V 253.0 H 66" fill="#e0e0e0" stroke="#e0e0e0" stroke-width="0"/>
	<rect x="119" y="228" width="66" height="50" fill="none" rx="14" stroke="#878787" stroke-width="2"/>
	<line x1="119" y1="253" x2="185" y2="253" stroke="#878787" stroke-width="1"/>
	<text x="126" y="245.7" fill="#000000" font-family="Verdana" font-size="12">matches</text>
</g>

<!-- Association writes -->
<line x1="357" y1="152" x2="357" y2="253" stroke="#878787" stroke-width="2"/>
<text x="362.0" y="220" fill="#b2182b" font-family="Verdana" font-size="12">0,N</text>
<line x1="248" y1="253" x2="357" y2="253" stroke="#878787" stroke-width="2"/>
<text x="271" y="270.0" fill="#b2182b" font-family="Verdana" font-size="12">1,1</text>
<g id="association-writes">
	<path d="M 369 228 a 14 14 90 0 1 14 14 V 253 h -52 V 242 a 14 14 90 0 1 14 -14" fill="#bababa" stroke="#bababa" stroke-width="0"/>
	<path d="M 383 253.0 v 11 a 14 14 90 0 1 -14 14 H 345 a 14 14 90 0 1 -14 -14 V 253.0 H 52" fill="#e0e0e0" stroke="#e0e0e0" stroke-width="0"/>
	<rect x="331" y="228" width="52" height="50" fill="none" rx="14" stroke="#878787" stroke-width="2"/>
	<line x1="331" y1="253" x2="383" y2="253" stroke="#878787" stroke-width="1"/>
	<text x="338" y="245.7" fill="#000000" font-family="Verdana" font-size="12">writes</text>
</g>

<!-- Association contains -->
<line x1="248" y1="253" x2="248" y2="152" stroke="#878787" stroke-width="2"/>
<text x="253.0" y="211" fill="#b2182b" font-family="Verdana" font-size="12">0,N</text>
<line x1="248" y1="51" x2="248" y2="152" stroke="#878787" stroke-width="2"/>
<text x="253.0" y="102" fill="#b2182b" font-family="Verdana" font-size="12">1,1</text>
<g id="association-contains">
	<path d="M 267 127 a 14 14 90 0 1 14 14 V 152 h -66 V 141 a 14 14 90 0 1 14 -14" fill="#bababa" stroke="#bababa" stroke-width="0"/>
	<path d="M 281 152.0 v 11 a 14 14 90 0 1 -14 14 H 229 a 14 14 90 0 1 -14 -14 V 152.0 H 66" fill="#e0e0e0" stroke="#e0e0e0" stroke-width="0"/>
	<rect x="215" y="127" width="66" height="50" fill="none" rx="14" stroke="#878787" stroke-width="2"/>
	<line x1="215" y1="152" x2="281" y2="152" stroke="#878787" stroke-width="1"/>
	<text x="222" y="144.7" fill="#000000" font-family="Verdana" font-size="12">contains</text>
</g>

<!-- Association creates -->
<line x1="357" y1="152" x2="357" y2="51" stroke="#878787" stroke-width="2"/>
<text x="362.0" y="93" fill="#b2182b" font-family="Verdana" font-size="12">0,N</text>
<line x1="248" y1="51" x2="357" y2="51" stroke="#878787" stroke-width="2"/>
<text x="276" y="68.0" fill="#b2182b" font-family="Verdana" font-size="12">1,1</text>
<g id="association-creates">
	<path d="M 373 26 a 14 14 90 0 1 14 14 V 51 h -60 V 40 a 14 14 90 0 1 14 -14" fill="#bababa" stroke="#bababa" stroke-width="0"/>
	<path d="M 387 51.0 v 11 a 14 14 90 0 1 -14 14 H 341 a 14 14 90 0 1 -14 -14 V 51.0 H 60" fill="#e0e0e0" stroke="#e0e0e0" stroke-width="0"/>
	<rect x="327" y="26" width="60" height="50" fill="none" rx="14" stroke="#878787" stroke-width="2"/>
	<line x1="327" y1="51" x2="387" y2="51" stroke="#878787" stroke-width="1"/>
	<text x="334" y="43.7" fill="#000000" font-family="Verdana" font-size="12">creates</text>
</g>

<!-- Entity Slot -->
<g id="entity-Slot">
	<g id="frame-Slot">
		<rect x="121" y="110" width="62" height="25" fill="#f4a582" stroke="#f4a582" stroke-width="0"/>
		<rect x="121" y="135.0" width="62" height="59" fill="#fddbc7" stroke="#fddbc7" stroke-width="0"/>
		<rect x="121" y="110" width="62" height="84" fill="none" stroke="#d6604d" stroke-width="2"/>
		<line x1="121" y1="135" x2="183" y2="135" stroke="#d6604d" stroke-width="1"/>
	</g>
	<text x="140" y="127.7" fill="#000000" font-family="Verdana" font-size="12">Slot</text>
	<text x="126" y="152.8" fill="#000000" font-family="Verdana" font-size="12">id</text>
	<line x1="126" y1="155" x2="138" y2="155" stroke="#000000" stroke-width="1"/>
	<text x="126" y="169.8" fill="#000000" font-family="Verdana" font-size="12">start</text>
	<text x="126" y="186.8" fill="#000000" font-family="Verdana" font-size="12">duration</text>
</g>

<!-- Entity Video -->
<g id="entity-Video">
	<g id="frame-Video">
		<rect x="225" y="17" width="46" height="25" fill="#f4a582" stroke="#f4a582" stroke-width="0"/>
		<rect x="225" y="42.0" width="46" height="43" fill="#fddbc7" stroke="#fddbc7" stroke-width="0"/>
		<rect x="225" y="17" width="46" height="68" fill="none" stroke="#d6604d" stroke-width="2"/>
		<line x1="225" y1="42" x2="271" y2="42" stroke="#d6604d" stroke-width="1"/>
	</g>
	<text x="231" y="34.7" fill="#000000" font-family="Verdana" font-size="12">Video</text>
	<text x="230" y="59.8" fill="#000000" font-family="Verdana" font-size="12">id</text>
	<line x1="230" y1="62" x2="242" y2="62" stroke="#000000" stroke-width="1"/>
	<text x="230" y="76.8" fill="#000000" font-family="Verdana" font-size="12">name</text>
</g>

<!-- Entity Original -->
<g id="entity-Original">
	<g id="frame-Original">
		<rect x="20" y="9" width="58" height="25" fill="#f4a582" stroke="#f4a582" stroke-width="0"/>
		<rect x="20" y="34.0" width="58" height="59" fill="#fddbc7" stroke="#fddbc7" stroke-width="0"/>
		<rect x="20" y="9" width="58" height="84" fill="none" stroke="#d6604d" stroke-width="2"/>
		<line x1="20" y1="34" x2="78" y2="34" stroke="#d6604d" stroke-width="1"/>
	</g>
	<text x="25" y="26.7" fill="#000000" font-family="Verdana" font-size="12">Original</text>
	<text x="25" y="51.8" fill="#000000" font-family="Verdana" font-size="12">id</text>
	<line x1="25" y1="54" x2="37" y2="54" stroke="#000000" stroke-width="1"/>
	<text x="25" y="68.8" fill="#000000" font-family="Verdana" font-size="12">name</text>
	<text x="25" y="85.8" fill="#000000" font-family="Verdana" font-size="12">file</text>
</g>

<!-- Entity Sub -->
<g id="entity-Sub">
	<g id="frame-Sub">
		<rect x="230" y="219" width="36" height="25" fill="#f4a582" stroke="#f4a582" stroke-width="0"/>
		<rect x="230" y="244.0" width="36" height="43" fill="#fddbc7" stroke="#fddbc7" stroke-width="0"/>
		<rect x="230" y="219" width="36" height="68" fill="none" stroke="#d6604d" stroke-width="2"/>
		<line x1="230" y1="244" x2="266" y2="244" stroke="#d6604d" stroke-width="1"/>
	</g>
	<text x="236" y="236.7" fill="#000000" font-family="Verdana" font-size="12">Sub</text>
	<text x="235" y="261.8" fill="#000000" font-family="Verdana" font-size="12">id</text>
	<line x1="235" y1="264" x2="247" y2="264" stroke="#000000" stroke-width="1"/>
	<text x="235" y="278.8" fill="#000000" font-family="Verdana" font-size="12">text</text>
</g>

<!-- Entity User -->
<g id="entity-User">
	<g id="frame-User">
		<rect x="313" y="101" width="88" height="25" fill="#f4a582" stroke="#f4a582" stroke-width="0"/>
		<rect x="313" y="126.0" width="88" height="77" fill="#fddbc7" stroke="#fddbc7" stroke-width="0"/>
		<rect x="313" y="101" width="88" height="102" fill="none" stroke="#d6604d" stroke-width="2"/>
		<line x1="313" y1="126" x2="401" y2="126" stroke="#d6604d" stroke-width="1"/>
	</g>
	<text x="343" y="118.7" fill="#000000" font-family="Verdana" font-size="12">User</text>
	<text x="318" y="143.7" fill="#000000" font-family="Verdana" font-size="12">id</text>
	<line x1="318" y1="146" x2="330" y2="146" stroke="#000000" stroke-width="1"/>
	<text x="318" y="160.8" fill="#000000" font-family="Verdana" font-size="12">email</text>
	<text x="318" y="177.8" fill="#000000" font-family="Verdana" font-size="12">displayName</text>
	<text x="318" y="194.8" fill="#000000" font-family="Verdana" font-size="12">password</text>
</g>
</svg>